<svg width="41" height="38" viewBox="0 0 41 38" fill="none" xmlns="http://www.w3.org/2000/svg">
<rect width="40" height="38" transform="translate(0.530029)" fill="#222222"/>
<g clip-path="url(#clip0_32_2126)">
<path d="M22.1918 12.3438C23.1293 13.2812 23.7895 14.3711 24.1723 15.6133C24.5551 16.8555 24.6332 18.1211 24.4067 19.4102C24.1801 20.6992 23.6606 21.8672 22.8481 22.9141L27.1371 27.2031L25.7309 28.6094L21.4418 24.3203C20.3481 25.1641 19.1137 25.6953 17.7387 25.9141C16.4106 26.1172 15.1137 25.9922 13.8481 25.5391C12.5512 25.0703 11.4457 24.3164 10.5316 23.2773C9.61759 22.2383 9.01212 21.0469 8.71524 19.7031C8.43399 18.3906 8.47306 17.0938 8.83243 15.8125C9.20743 14.4844 9.88712 13.3281 10.8715 12.3438C11.6215 11.5938 12.4848 11.0156 13.4613 10.6094C14.4379 10.2031 15.4574 10 16.5199 10C17.5824 10 18.6059 10.2031 19.5902 10.6094C20.5746 11.0156 21.4418 11.5938 22.1918 12.3438ZM12.2777 13.75C11.5121 14.5156 10.9965 15.4141 10.7309 16.4453C10.4652 17.4766 10.4652 18.5078 10.7309 19.5391C10.9965 20.5703 11.5121 21.4727 12.2777 22.2461C13.0434 23.0195 13.9418 23.5391 14.9731 23.8047C16.0043 24.0703 17.0356 24.0703 18.0668 23.8047C19.0981 23.5391 20.0004 23.0195 20.7738 22.2461C21.5473 21.4727 22.0668 20.5703 22.3324 19.5391C22.5981 18.5078 22.5981 17.4766 22.3324 16.4453C22.0668 15.4141 21.5473 14.5156 20.7738 13.75C20.0004 12.9844 19.0981 12.4687 18.0668 12.2031C17.0356 11.9375 16.0043 11.9375 14.9731 12.2031C13.9418 12.4687 13.0434 12.9844 12.2777 13.75Z" fill="white"/>
</g>
<defs>
<clipPath id="clip0_32_2126">
<rect width="24" height="24" fill="white" transform="matrix(1 0 0 -1 8.53003 31)"/>
</clipPath>
</defs>
</svg>
