<svg width="195" height="56" viewBox="0 0 195 56" fill="none" xmlns="http://www.w3.org/2000/svg">
<rect width="194.258" height="56" fill="white"/>
<path d="M47.5 34.7383C47.5 35.8711 47.2559 36.877 46.7676 37.7559C46.5137 38.2441 46.2061 38.6885 45.8447 39.0889C45.4834 39.4893 45.0781 39.875 44.6289 40.2461C44.1797 40.6172 43.6816 40.9541 43.1348 41.2568C42.5879 41.5596 42.002 41.8086 41.377 42.0039C40.127 42.3945 38.75 42.5996 37.2461 42.6191C36.5625 42.6191 35.9131 42.5947 35.2979 42.5459C34.6826 42.4971 34.1309 42.4434 33.6426 42.3848C33.0762 42.3066 32.5342 42.2139 32.0166 42.1064C31.499 41.999 30.9912 41.8818 30.4932 41.7549C29.9951 41.6279 29.5215 41.457 29.0723 41.2422L27.7539 40.627C27.3242 40.373 26.8848 40.0947 26.4355 39.792C25.9863 39.4893 25.5078 39.1816 25 38.8691L29.3652 35.002C30.6152 35.9785 31.8652 36.6426 33.1152 36.9941C33.7402 37.1895 34.375 37.3408 35.0195 37.4482C35.6641 37.5557 36.3281 37.6191 37.0117 37.6387C37.3242 37.6191 37.6123 37.585 37.876 37.5361C38.1396 37.4873 38.3936 37.4336 38.6377 37.375C38.8818 37.3164 39.1211 37.2285 39.3555 37.1113C39.5898 36.9941 39.8047 36.8721 40 36.7451C40.1953 36.6182 40.3613 36.4766 40.498 36.3203L40.8789 35.8809C41.1328 35.5098 41.2598 35.1289 41.2598 34.7383C41.2598 34.5039 41.2354 34.2842 41.1865 34.0791C41.1377 33.874 41.0791 33.6787 41.0107 33.4932C40.9424 33.3076 40.8203 33.127 40.6445 32.9512C40.4688 32.7754 40.2539 32.6289 40 32.5117C39.7461 32.3164 39.458 32.1455 39.1357 31.999C38.8135 31.8525 38.4375 31.6865 38.0078 31.501C37.5781 31.3154 37.0996 31.1299 36.5723 30.9443C36.0449 30.7588 35.4395 30.5684 34.7559 30.373C33.623 30.0215 32.5 29.6016 31.3867 29.1133C30.8203 28.8594 30.3125 28.5859 29.8633 28.293C29.4141 28 28.999 27.6924 28.6182 27.3701C28.2373 27.0479 27.8809 26.6816 27.5488 26.2715C27.2168 25.8613 26.9531 25.4414 26.7578 25.0117C26.4453 24.4453 26.2207 23.874 26.084 23.2979C25.9473 22.7217 25.8789 22.1211 25.8789 21.4961C25.8789 20.2461 26.1279 19.123 26.626 18.127C27.124 17.1309 27.8711 16.252 28.8672 15.4902C29.3164 15.1777 29.8145 14.8799 30.3613 14.5967C30.9082 14.3135 31.4941 14.0742 32.1191 13.8789C32.7441 13.6836 33.3984 13.5322 34.082 13.4248C34.7656 13.3174 35.4492 13.2637 36.1328 13.2637C37.3242 13.2441 38.4375 13.3076 39.4727 13.4541C40.5078 13.6006 41.4355 13.8252 42.2559 14.1279C43.0762 14.4307 43.8525 14.7822 44.585 15.1826C45.3174 15.583 45.9961 16.0664 46.6211 16.6328L42.373 20.5C42.002 20.1875 41.5967 19.8848 41.1572 19.5918C40.7178 19.2988 40.2539 19.0645 39.7656 18.8887C38.75 18.5176 37.6172 18.3418 36.3672 18.3613C36.0742 18.3809 35.7959 18.415 35.5322 18.4639C35.2686 18.5127 35.0098 18.5664 34.7559 18.625C34.4434 18.6836 34.1797 18.7715 33.9648 18.8887C33.75 19.0059 33.5547 19.1279 33.3789 19.2549C33.2031 19.3818 33.042 19.5332 32.8955 19.709C32.749 19.8848 32.6172 20.0605 32.5 20.2363C32.2461 20.627 32.1191 21.0078 32.1191 21.3789C32.1191 21.8477 32.2461 22.2676 32.5 22.6387C32.5586 22.8145 32.6758 22.9756 32.8516 23.1221C33.0273 23.2686 33.2422 23.4346 33.4961 23.6201C33.75 23.8057 34.0381 23.9717 34.3604 24.1182C34.6826 24.2646 35.0684 24.4355 35.5176 24.6309C36.3574 25.002 37.3926 25.373 38.623 25.7441C39.4434 25.998 40.1758 26.2568 40.8203 26.5205C41.4648 26.7842 42.0654 27.0723 42.6221 27.3848C43.1787 27.6973 43.6865 28.0146 44.1455 28.3369C44.6045 28.6592 45.0195 29.0059 45.3906 29.377C45.7617 29.748 46.0791 30.1289 46.3428 30.5195C46.6064 30.9102 46.8262 31.3203 47.002 31.75C47.3535 32.6289 47.5195 33.625 47.5 34.7383ZM82.627 42.2383H76.5039V29.7578H65.1367V42.2383H59.0137V13.8789H65.1367V25.1289H76.5039V13.8789H82.627V42.2383ZM116.494 42.2383H94.1406V13.8789H116.494V18.3613H100.117V25.1289H115.264V29.4941H100.117V37.2578H116.494V42.2383ZM134.629 42.2383H128.506V13.8789H134.629V42.2383ZM169.258 13.8789V43L152.119 28.1172V42.0039H146.143V13L163.252 27.8828V13.8789H169.258Z" fill="#222222"/>
</svg>
