<svg width="20" height="20" viewBox="0 0 20 20" fill="none" xmlns="http://www.w3.org/2000/svg">
<path d="M9.94409 11.9922C11.3503 11.9922 12.6863 12.2734 13.9519 12.8359C15.2175 13.3984 16.323 14.1836 17.2683 15.1914C18.2136 16.1992 18.9207 17.3594 19.3894 18.6719L19.8582 20.0078H0.0300293L0.498779 18.6719C0.967529 17.3594 1.67456 16.1953 2.61987 15.1797C3.56519 14.1641 4.67065 13.3789 5.93628 12.8242C7.2019 12.2695 8.53784 11.9922 9.94409 11.9922ZM9.94409 14.0078C8.53784 14.0078 7.22534 14.3516 6.00659 15.0391C4.78784 15.7266 3.81128 16.6719 3.0769 17.875L3.00659 18.0156H16.8816L16.8113 17.875C16.1082 16.7188 15.1707 15.7969 13.9988 15.1094C12.8269 14.4219 11.5691 14.0547 10.2253 14.0078H9.94409ZM9.94409 -0.0078125C10.9128 -0.0078125 11.8035 0.230469 12.616 0.707031C13.4285 1.18359 14.073 1.82812 14.5496 2.64062C15.0261 3.45313 15.2644 4.34375 15.2644 5.3125C15.2644 6.28125 15.0261 7.17187 14.5496 7.98438C14.073 8.79688 13.4285 9.44141 12.616 9.91797C11.8035 10.3945 10.9128 10.6328 9.94409 10.6328C8.97534 10.6328 8.08472 10.3945 7.27222 9.91797C6.45972 9.44141 5.81519 8.79688 5.33862 7.98438C4.86206 7.17187 4.62378 6.28125 4.62378 5.3125C4.62378 4.34375 4.86206 3.45313 5.33862 2.64062C5.81519 1.82812 6.45972 1.18359 7.27222 0.707031C8.08472 0.230469 8.97534 -0.0078125 9.94409 -0.0078125ZM9.94409 2.00781C9.35034 2.00781 8.79956 2.15625 8.29175 2.45312C7.78394 2.75 7.38159 3.15234 7.08472 3.66016C6.78784 4.16797 6.6394 4.71875 6.6394 5.3125C6.6394 5.90625 6.78784 6.46094 7.08472 6.97656C7.38159 7.49219 7.78394 7.89453 8.29175 8.18359C8.79956 8.47266 9.35034 8.61719 9.94409 8.61719C10.5378 8.61719 11.0886 8.46875 11.5964 8.17188C12.1042 7.875 12.5066 7.47266 12.8035 6.96484C13.1003 6.45703 13.2488 5.90625 13.2488 5.3125C13.2488 4.71875 13.1003 4.16797 12.8035 3.66016C12.5066 3.15234 12.1042 2.75 11.5964 2.45312C11.0886 2.15625 10.5378 2.00781 9.94409 2.00781Z" fill="#666666"/>
</svg>
