<svg width="20" height="20" viewBox="0 0 20 20" fill="none" xmlns="http://www.w3.org/2000/svg">
<path d="M4.86597 3.05078L4.58472 0.753906H0.858154V2.74609H2.80347L3.10815 5.25391H3.13159L4.28003 14.2773H17.7332L19.1628 3.05078H4.86597ZM6.03784 12.2852L5.12378 5.04297H16.8894L15.9753 12.2852H6.03784ZM5.75659 19.2461C6.17847 19.2461 6.53394 19.1016 6.823 18.8125C7.11206 18.5234 7.25659 18.1719 7.25659 17.7578C7.25659 17.3438 7.11206 16.9883 6.823 16.6914C6.53394 16.3945 6.18237 16.2461 5.76831 16.2461C5.35425 16.2461 4.99878 16.3945 4.7019 16.6914C4.40503 16.9883 4.25659 17.3438 4.25659 17.7578C4.25659 18.1719 4.40503 18.5234 4.7019 18.8125C4.99878 19.1016 5.35034 19.2461 5.75659 19.2461ZM17.7566 17.7461C17.7566 18.168 17.6121 18.5234 17.323 18.8125C17.0339 19.1016 16.6824 19.2461 16.2683 19.2461C15.8542 19.2461 15.4988 19.1016 15.2019 18.8125C14.905 18.5234 14.7566 18.1719 14.7566 17.7578C14.7566 17.3438 14.905 16.9883 15.2019 16.6914C15.4988 16.3945 15.8542 16.2461 16.2683 16.2461C16.6824 16.2461 17.0339 16.3945 17.323 16.6914C17.6121 16.9883 17.7566 17.3398 17.7566 17.7461Z" fill="#666666"/>
</svg>
